<svg version="1.1" id="Layer_1" xmlns="http://www.w3.org/2000/svg" xmlns:xlink="http://www.w3.org/1999/xlink" x="0px" y="0px"
	 width="100%" viewBox="0 0 500 500" enable-background="new 0 0 500 500" xml:space="preserve">
<path fill="#000000" opacity="1.000000" stroke="none" 
	d="
M277.000000,501.000000 
	C184.666687,501.000000 92.833374,501.000000 1.000049,501.000000 
	C1.000033,334.333405 1.000033,167.666794 1.000016,1.000139 
	C167.666565,1.000093 334.333130,1.000093 500.999756,1.000046 
	C500.999847,167.666519 500.999847,334.333038 500.999939,500.999786 
	C426.500000,501.000000 352.000000,501.000000 277.000000,501.000000 
M351.076355,290.330841 
	C351.187286,290.598053 351.384857,290.758331 352.416779,290.864929 
	C353.849976,288.852142 355.283173,286.839386 356.025024,285.797577 
	C358.047974,287.224579 360.628784,289.045074 363.885254,290.522125 
	C364.248993,288.842072 364.758545,287.177917 364.943695,285.478363 
	C365.255096,282.620056 365.360321,279.739227 366.364166,277.088898 
	C367.859009,277.626099 369.353882,278.163300 370.750305,278.665131 
	C371.006958,282.447144 371.244629,285.949890 371.482330,289.452637 
	C371.919220,289.428558 372.356079,289.404480 372.792969,289.380371 
	C373.966980,284.927612 375.140991,280.474823 376.599152,274.944183 
	C373.564819,275.270935 369.553314,275.702911 365.121979,275.826019 
	C364.507019,275.573669 363.892029,275.321289 362.386322,275.032684 
	C358.293060,275.197662 358.388550,275.143646 360.286835,278.500549 
	C360.857819,279.510345 360.735687,280.912140 360.806427,281.354675 
	C357.674805,279.248993 354.595032,277.178192 350.794556,275.186615 
	C350.570221,277.637543 350.345917,280.088470 349.956665,283.497406 
	C349.983154,284.467438 350.009644,285.437469 350.013000,287.062103 
	C350.328766,288.073822 350.644531,289.085510 351.020203,290.017700 
	C351.020203,290.017700 350.941406,289.956879 351.076355,290.330841 
M213.192673,275.347809 
	C213.192673,280.459137 213.192673,285.570496 213.192673,291.452789 
	C216.714905,290.958160 220.004333,290.496246 223.865372,289.641541 
	C222.606583,289.088104 221.281708,288.646179 220.107529,287.950043 
	C218.922699,287.247620 217.887360,286.292999 215.859695,284.738159 
	C219.304932,284.094635 221.007828,283.776581 222.710724,283.458496 
	C222.839996,282.946472 222.969269,282.434448 223.098557,281.922424 
	C221.185425,281.242218 219.272293,280.561981 216.335114,279.517639 
	C218.950684,278.480835 220.950516,277.688110 222.950348,276.895386 
	C222.906693,276.344147 222.863022,275.792877 222.819351,275.241608 
	C219.905060,275.241608 216.990768,275.241608 213.192673,275.347809 
M187.022964,289.100769 
	C186.043442,287.350952 185.063934,285.601135 183.882858,283.460266 
	C183.882858,283.460266 183.708038,283.056488 183.686249,282.470154 
	C183.139725,281.944550 182.593216,281.418945 181.860641,280.199554 
	C172.570450,264.456177 163.280243,248.712784 153.673401,232.323181 
	C152.847870,230.161819 152.287750,227.848892 151.154083,225.863480 
	C143.341248,212.180893 135.445786,198.544891 127.470795,184.956146 
	C126.389771,183.114166 124.717056,181.619431 123.589989,180.285446 
	C118.132126,188.869614 112.869690,196.685120 108.093086,204.787048 
	C103.180031,213.120422 98.793129,221.762421 94.068207,230.209076 
	C92.234093,233.487900 89.971283,236.526871 88.136009,239.805115 
	C83.291039,248.459412 78.698784,257.256897 73.766228,265.859955 
	C69.583099,273.155914 64.997635,280.221161 60.811832,287.515686 
	C60.438419,288.166443 61.698654,289.754639 63.022915,290.898651 
	C65.338196,290.563751 67.653481,290.228851 70.600136,289.950714 
	C70.809959,289.975708 71.019783,290.000732 71.612106,290.766418 
	C72.440300,290.831635 73.268456,290.953308 74.096703,290.953918 
	C110.843956,290.980713 147.591232,291.005493 184.338425,290.963440 
	C185.242615,290.962402 186.145950,290.205536 187.022964,289.100769 
M231.716782,285.425934 
	C235.022537,290.844940 235.022537,290.844940 236.612991,290.188202 
	C237.093567,286.684021 237.719910,283.763092 237.834259,280.822266 
	C237.949524,277.858490 237.163666,274.927490 233.381912,275.105865 
	C230.823578,275.226532 226.316940,273.151276 227.220032,279.496002 
	C227.220032,279.496002 227.320404,279.947205 227.196716,280.797516 
	C227.228012,282.511810 227.259293,284.226135 227.135788,286.727325 
	C227.295715,288.057922 227.455627,289.388519 227.615540,290.719116 
	C228.211411,290.825043 228.807266,290.930939 229.403122,291.036865 
	C229.980026,289.041229 230.556915,287.045624 231.716782,285.425934 
M352.922028,210.183914 
	C352.939728,221.809845 352.957458,233.435791 352.778503,245.706558 
	C350.549622,247.569412 348.320740,249.432251 346.091827,251.295105 
	C346.256439,251.667618 346.421021,252.040146 346.585602,252.412659 
	C355.861420,252.412659 365.137238,252.412659 374.413055,252.412659 
	C374.601868,252.027512 374.790680,251.642365 374.979492,251.257217 
	C373.721588,250.251373 372.391724,249.321991 371.222412,248.221954 
	C369.412048,246.518845 367.711304,244.699234 366.040924,242.004333 
	C366.112366,228.652863 366.183807,215.301392 366.737122,201.502533 
	C369.285309,199.210327 371.833527,196.918137 375.657349,193.478470 
	C369.773163,193.293579 365.092133,193.052231 360.409912,193.026245 
	C355.866425,193.001038 351.164978,191.794617 349.402222,198.621841 
	C347.785675,204.882706 344.510956,210.715469 341.966705,216.736786 
	C339.433502,222.731812 336.900146,228.726761 334.099457,235.354523 
	C331.645660,231.145096 329.490814,227.972977 327.874817,224.546707 
	C325.744263,220.029465 324.021545,215.318848 322.151978,210.679871 
	C320.470612,206.507889 318.547913,202.404694 317.254913,198.113510 
	C316.188538,194.574371 314.563171,192.697662 310.631317,192.942413 
	C306.656433,193.189835 302.653198,192.944901 298.664185,193.016312 
	C296.317688,193.058334 293.974762,193.296326 291.630219,193.446182 
	C291.533905,193.986664 291.437592,194.527145 291.341278,195.067627 
	C293.155304,195.846802 295.421417,196.201569 296.660004,197.520950 
	C297.976654,198.923508 298.319427,201.240326 299.041351,204.074982 
	C299.036224,208.522949 298.924286,212.974045 299.053925,217.418091 
	C299.204376,222.576035 299.566864,227.727783 300.349976,233.495911 
	C302.241211,241.926376 299.439972,248.056030 290.297638,251.076553 
	C290.685638,251.455399 291.073669,251.834244 291.461670,252.213089 
	C298.825867,252.213089 306.190033,252.213089 314.571411,252.213089 
	C311.027008,249.180069 308.450195,246.975037 306.012421,243.966339 
	C306.311005,242.202179 306.842560,240.441360 306.867828,238.673294 
	C306.976990,231.032867 306.881348,223.389465 307.000610,215.749329 
	C307.024536,214.218872 307.661530,212.697983 308.100128,211.827728 
	C309.778259,215.751221 311.505371,219.654617 313.124512,223.602310 
	C316.696045,232.310349 319.971313,241.153427 323.942841,249.673187 
	C324.806702,251.526337 328.014404,253.122513 330.266510,253.304657 
	C334.010193,253.607422 334.928284,250.597153 336.229797,247.218307 
	C341.112732,234.541885 346.792389,222.172363 352.922028,210.183914 
M204.099365,198.584442 
	C204.734344,199.053421 205.369339,199.522400 205.984909,200.564896 
	C206.222321,201.068253 206.459732,201.571609 206.904190,202.982468 
	C206.835724,216.630371 206.767242,230.278259 206.271042,244.456589 
	C203.850006,246.861053 201.428970,249.265533 199.071106,251.607254 
	C202.313156,253.578201 218.632492,253.462082 221.020782,251.526840 
	C219.031631,249.689972 216.997406,247.811478 214.921997,245.004700 
	C214.902573,235.344391 214.799469,225.682693 214.957413,216.025284 
	C214.980103,214.637802 216.261353,213.270889 216.930679,212.681381 
	C222.480072,225.497192 227.954086,238.346985 233.694244,251.076767 
	C234.275024,252.364731 236.714355,253.911469 237.849121,253.619568 
	C240.064865,253.049591 243.066269,251.718811 243.817123,249.905731 
	C247.842484,240.185883 251.142365,230.168518 254.982727,220.367523 
	C256.354767,216.865921 258.538879,213.682495 260.352295,210.353836 
	C260.809753,210.565491 261.267181,210.777145 261.724640,210.988800 
	C261.724640,220.486740 261.909302,229.989761 261.647675,239.480484 
	C261.514435,244.312759 260.067352,248.722885 254.327545,249.959335 
	C253.831223,250.066254 253.213638,251.264648 253.293884,251.871124 
	C253.358231,252.357285 254.397949,253.076889 255.002335,253.074463 
	C263.433044,253.040771 271.864197,252.934845 280.292236,252.725250 
	C281.017731,252.707214 281.721863,251.829956 283.029755,250.954193 
	C281.245575,250.326996 280.222961,249.838684 279.145386,249.612442 
	C275.649567,248.878510 275.016144,246.779861 275.177124,243.396210 
	C275.732849,231.716293 276.171692,220.015945 276.093079,208.327164 
	C276.055481,202.742142 274.963867,197.265671 282.270996,195.461349 
	C282.332642,195.446136 282.327576,195.160995 282.421906,194.585541 
	C281.828278,194.176941 281.094604,193.238525 280.338898,193.220428 
	C274.350311,193.077042 268.352051,192.972824 262.371063,193.212585 
	C261.298920,193.255569 259.846497,194.741302 259.326294,195.900467 
	C255.079758,205.362411 251.062088,214.926788 246.864410,224.411118 
	C245.424835,227.663712 243.671478,230.777420 241.805862,234.458984 
	C240.914444,233.310959 240.419983,232.872803 240.170502,232.323410 
	C235.408218,221.836914 230.511765,211.406937 225.989670,200.817276 
	C222.687836,193.085114 222.911072,192.988617 214.574249,192.993423 
	C210.910889,192.995544 207.230606,192.798355 203.591599,193.098694 
	C201.869858,193.240799 200.227127,194.340134 198.548599,195.005768 
	C199.991730,195.665649 201.449692,196.295822 202.868988,197.003494 
	C203.295670,197.216232 203.614761,197.644760 204.099365,198.584442 
M436.218048,200.815567 
	C437.204346,199.779877 438.235077,198.782166 439.163483,197.696945 
	C439.968323,196.756165 440.657227,195.716187 441.397369,194.720047 
	C440.145905,194.150101 438.918427,193.162231 437.638458,193.088715 
	C433.824219,192.869659 429.982513,192.879669 426.166382,193.081360 
	C424.869690,193.149902 423.617249,194.055405 422.344574,194.578461 
	C423.160919,195.886002 423.704926,197.947220 424.844910,198.359207 
	C428.212616,199.576279 428.030090,201.548538 427.004333,204.189560 
	C423.570496,213.030609 420.248932,221.915848 416.736572,230.725235 
	C416.193176,232.088104 414.875214,233.142136 413.593201,234.740768 
	C409.850616,225.323532 406.253601,216.504959 402.854126,207.610870 
	C401.377136,203.746506 400.012146,199.854828 404.665009,196.687012 
	C406.868744,195.186630 406.011963,193.199539 403.445068,193.140488 
	C395.342224,192.954041 387.232391,193.071716 377.589630,193.071716 
	C379.468811,195.181320 380.544220,196.178253 381.365540,197.352844 
	C383.285919,200.099182 385.540924,202.735901 386.835724,205.769058 
	C389.409149,211.797562 391.334564,218.098969 393.698639,224.221634 
	C396.322144,231.016266 399.135315,237.737686 401.868042,244.490143 
	C403.066895,247.452393 403.755188,250.826157 405.670715,253.214783 
	C406.776367,254.593521 409.881714,254.801559 412.059113,254.726547 
	C413.378204,254.681091 415.322235,253.367432 415.825928,252.145538 
	C419.696991,242.754791 423.373352,233.280060 426.905640,223.755569 
	C428.002411,220.798309 428.074280,217.436935 429.315155,214.562683 
	C431.246094,210.089966 433.775452,205.875580 436.218048,200.815567 
M397.856293,290.844849 
	C406.950897,291.007721 407.447052,290.422272 406.081268,281.445404 
	C405.883759,280.147003 406.070282,278.789398 405.865662,277.492889 
	C405.242706,273.545624 402.006439,274.982697 399.942719,275.158142 
	C398.270142,275.300293 395.329254,276.927582 395.353485,277.831757 
	C395.467896,282.100922 396.408722,286.347961 397.856293,290.844849 
M343.614716,275.323395 
	C342.299713,275.217957 340.980682,275.148438 339.670471,275.000610 
	C335.133942,274.488922 332.901489,277.231720 332.109741,281.027893 
	C331.140686,285.674347 334.083282,290.039124 338.296967,290.860352 
	C342.122009,291.605865 345.290161,290.390808 347.031158,286.810547 
	C349.129822,282.494781 347.900940,278.806763 343.614716,275.323395 
M382.119080,277.445557 
	C380.650879,281.789062 379.182648,286.132538 377.714447,290.476044 
	C378.001465,290.779480 378.288483,291.082916 378.575500,291.386353 
	C379.856384,290.741882 381.412720,290.368225 382.364349,289.400146 
	C384.814789,286.907410 386.905334,285.029114 389.006470,289.699463 
	C389.269379,290.283844 390.633270,290.866760 391.235657,290.672211 
	C391.900757,290.457336 392.873901,289.067352 392.687378,288.667236 
	C390.276764,283.495483 390.982452,276.732330 384.866425,273.001678 
	C384.013275,274.427521 383.275024,275.661285 382.119080,277.445557 
M290.645294,275.265656 
	C288.835236,275.175354 287.022552,275.120331 285.215607,274.987610 
	C281.065125,274.682770 279.424805,277.557587 279.209106,280.755646 
	C278.976227,284.207947 277.792969,288.289185 282.975006,290.193756 
	C287.412323,291.824585 291.205200,290.890656 293.369598,287.482544 
	C295.856445,283.566711 295.400330,279.077942 290.645294,275.265656 
M270.266510,278.035706 
	C271.733246,278.884949 273.199982,279.734161 274.725708,280.617554 
	C276.857086,277.250488 275.222656,275.736664 272.133789,274.927551 
	C268.694458,274.026703 265.675995,275.127014 264.190948,278.136169 
	C262.775665,281.004028 261.440765,284.170990 263.785797,287.624451 
	C265.263977,289.801361 269.026855,290.610413 268.080292,294.322784 
	C269.221680,294.558807 271.076385,295.343994 271.387024,294.940491 
	C273.207581,292.575653 274.667236,289.933044 276.355743,287.211517 
	C275.838196,286.423615 275.134705,285.352692 274.428680,284.277893 
	C272.002686,285.892212 269.743469,289.364075 267.006500,285.425690 
	C264.836395,282.302917 265.483185,279.429077 270.266510,278.035706 
M320.005829,275.542908 
	C316.525360,278.238831 314.104309,284.002441 316.369110,286.449951 
	C318.475281,288.726074 322.018555,290.011536 325.163940,290.823334 
	C326.458923,291.157501 328.495605,289.257141 329.889954,288.027344 
	C330.168945,287.781250 329.063965,285.965942 328.608765,284.901428 
	C327.747864,285.230347 327.475952,285.387543 327.185791,285.436584 
	C325.151794,285.780365 323.114044,286.101868 321.077484,286.430481 
	C320.819214,284.401947 319.869141,282.082458 320.555176,280.451080 
	C320.985138,279.428619 323.863220,279.382843 325.665527,279.007446 
	C327.037750,278.721558 328.445557,278.606628 330.342194,278.346436 
	C327.416962,274.073547 324.095215,274.431824 320.005829,275.542908 
M209.829803,288.119568 
	C212.180740,282.812439 204.077652,282.734161 204.246048,277.978424 
	C206.437332,278.348907 207.970734,278.608154 210.410782,279.020721 
	C207.771317,273.821564 203.920715,275.198547 201.115723,275.082489 
	C197.700821,281.137146 202.040222,283.589935 205.846970,286.427979 
	C204.755417,286.672058 203.995758,286.558167 203.231995,286.512146 
	C201.890854,286.431274 200.547211,286.391968 199.204620,286.335236 
	C200.037033,287.661011 200.835251,290.079407 201.708298,290.106720 
	C204.280762,290.187225 206.882874,289.320312 209.829803,288.119568 
M436.738953,274.789307 
	C434.610474,275.342651 431.039093,275.360382 430.600800,276.541107 
	C428.597900,281.936859 433.045563,284.082458 437.144043,286.132324 
	C436.960480,286.528442 436.776886,286.924561 436.593323,287.320679 
	C434.521271,287.001404 432.449188,286.682129 430.377136,286.362823 
	C430.124786,286.863403 429.872437,287.363953 429.620087,287.864502 
	C431.342865,288.923553 432.985596,290.621582 434.812378,290.850433 
	C436.431488,291.053223 439.341156,290.038971 439.799927,288.841339 
	C441.750519,283.749329 436.951172,281.701416 433.200104,278.098633 
	C436.188507,278.440308 437.946930,278.641357 439.705353,278.842407 
	C439.935974,278.501434 440.166595,278.160492 440.397247,277.819550 
	C439.438843,276.858582 438.480438,275.897583 436.738953,274.789307 
M297.395203,286.344788 
	C296.109131,289.913452 298.965607,290.956970 301.099030,290.799774 
	C303.082092,290.653625 305.649078,289.116394 306.587952,287.428833 
	C307.201782,286.325623 305.646088,283.672974 304.542877,282.072205 
	C303.752258,280.924957 302.101807,280.370270 300.834961,279.551178 
	C301.045227,279.152954 301.255493,278.754730 301.465759,278.356506 
	C302.487396,278.579987 303.522644,279.014862 304.525818,278.950409 
	C305.162445,278.909454 306.138367,278.210480 306.260284,277.653076 
	C306.401611,277.007111 305.716034,275.532745 305.488556,275.552643 
	C302.913177,275.777618 299.563385,275.356415 297.982483,276.808380 
	C295.649414,278.951172 296.574097,281.993835 299.568817,283.765259 
	C300.680511,284.422882 301.862335,284.962006 303.012207,285.555145 
	C302.864624,285.962463 302.717072,286.369781 302.569489,286.777100 
	C301.068207,286.568054 299.566895,286.358978 297.395203,286.344788 
M250.140091,285.790833 
	C251.372009,282.353424 252.603912,278.915985 253.894043,275.316132 
	C247.252090,274.183411 249.986832,281.232605 246.392380,282.726715 
	C245.559601,280.650238 244.903961,278.452759 243.786865,276.522339 
	C243.372086,275.805634 241.875488,275.714966 240.872223,275.338837 
	C240.778351,276.321320 240.372513,277.402649 240.646896,278.268433 
	C241.618057,281.332825 242.651367,284.403259 244.009766,287.308350 
	C244.681412,288.744781 246.114700,289.825073 247.203400,291.066498 
	C248.140411,289.574982 249.077438,288.083466 250.140091,285.790833 
M417.883972,283.885712 
	C417.936676,282.985687 418.309479,281.464996 417.984436,281.297363 
	C416.822083,280.697815 415.423096,280.557129 414.113617,280.242859 
	C414.075684,279.866272 414.037750,279.489655 413.999847,279.113037 
	C415.836975,278.351532 417.674103,277.590027 419.511230,276.828522 
	C416.455292,275.307587 412.593933,272.724548 411.329712,277.117706 
	C410.131531,281.281372 411.072113,286.060547 411.072113,290.479004 
	C414.886169,290.479004 417.884369,290.479004 420.882568,290.479004 
	C420.971130,289.907593 421.059692,289.336182 421.148254,288.764771 
	C418.847198,288.308716 416.546112,287.852692 412.737976,287.097992 
	C414.905762,285.584442 416.037628,284.794220 417.883972,283.885712 
M259.972015,284.318726 
	C259.851746,276.195953 259.851746,276.195953 255.882568,275.422882 
	C256.971527,280.569641 254.178070,285.964752 257.551697,290.629028 
	C258.071106,290.641815 258.590515,290.654633 259.109894,290.667450 
	C259.393341,288.850189 259.676788,287.032928 259.972015,284.318726 
M424.077454,288.691589 
	C424.834320,288.990631 426.022797,289.752106 426.278076,289.513824 
	C427.954651,287.948730 426.971954,277.529694 424.038910,274.307220 
	C424.038910,279.609985 424.038910,283.761261 424.077454,288.691589 
z"/>
<path fill="#A41F1F" opacity="1.000000" stroke="none" 
	d="
M183.708038,283.056488 
	C183.708038,283.056488 183.882858,283.460266 183.981201,284.038757 
	C184.134995,285.884766 184.190445,287.152283 184.270340,288.978058 
	C181.961655,288.978058 179.998642,288.978119 178.035629,288.978058 
	C144.738678,288.977112 111.441696,288.958038 78.144852,289.018402 
	C76.054672,289.022217 73.965630,289.647003 71.718483,290.054504 
	C71.560905,290.126099 71.229607,290.025726 71.229607,290.025726 
	C71.019783,290.000732 70.809959,289.975708 70.026474,289.709473 
	C68.277267,288.602692 67.101723,287.737122 66.130867,286.603638 
	C67.726555,285.437958 69.097038,284.506409 70.511559,283.647308 
	C98.334663,266.749634 126.162888,249.860397 153.990051,232.969391 
	C163.280243,248.712784 172.570450,264.456177 181.995514,280.841431 
	C182.656265,282.007721 183.182159,282.532104 183.708038,283.056488 
z"/>
<path fill="#1A1816" opacity="1.000000" stroke="none" 
	d="
M153.831726,232.646301 
	C126.162888,249.860397 98.334663,266.749634 70.511559,283.647308 
	C69.097038,284.506409 67.726555,285.437958 65.797081,286.656311 
	C64.239128,288.287109 63.219650,289.597260 62.200172,290.907440 
	C61.698654,289.754639 60.438419,288.166443 60.811832,287.515686 
	C64.997635,280.221161 69.583099,273.155914 73.766228,265.859955 
	C78.698784,257.256897 83.291039,248.459412 88.136009,239.805115 
	C89.971283,236.526871 92.234093,233.487900 94.068207,230.209076 
	C98.793129,221.762421 103.180031,213.120422 108.093086,204.787048 
	C112.869690,196.685120 118.132126,188.869614 123.589989,180.285446 
	C124.717056,181.619431 126.389771,183.114166 127.470795,184.956146 
	C135.445786,198.544891 143.341248,212.180893 151.154083,225.863480 
	C152.287750,227.848892 152.847870,230.161819 153.831726,232.646301 
z"/>
<path fill="#1D1D1A" opacity="1.000000" stroke="none" 
	d="
M214.963165,245.932983 
	C216.997406,247.811478 219.031631,249.689972 221.020782,251.526840 
	C218.632492,253.462082 202.313156,253.578201 199.071106,251.607254 
	C201.428970,249.265533 203.850006,246.861053 206.636551,244.378693 
	C207.383301,244.159470 207.764526,244.018112 208.359360,243.547852 
	C208.423386,239.515244 208.273804,235.811539 208.063751,231.740509 
	C208.042847,230.880066 208.082382,230.386917 208.343445,229.557556 
	C208.432251,220.194260 208.299530,211.167206 208.012299,201.943298 
	C207.470901,201.855972 207.084030,201.965469 206.697144,202.074966 
	C206.459732,201.571609 206.222321,201.068253 206.257355,200.143692 
	C205.680908,199.139801 204.832016,198.557114 203.983124,197.974442 
	C203.614761,197.644760 203.295670,197.216232 202.868988,197.003494 
	C201.449692,196.295822 199.991730,195.665649 198.548599,195.005768 
	C200.227127,194.340134 201.869858,193.240799 203.591599,193.098694 
	C207.230606,192.798355 210.910889,192.995544 214.574249,192.993423 
	C222.911072,192.988617 222.687836,193.085114 225.989670,200.817276 
	C230.511765,211.406937 235.408218,221.836914 240.170502,232.323410 
	C240.419983,232.872803 240.914444,233.310959 241.805862,234.458984 
	C243.671478,230.777420 245.424835,227.663712 246.864410,224.411118 
	C251.062088,214.926788 255.079758,205.362411 259.326294,195.900467 
	C259.846497,194.741302 261.298920,193.255569 262.371063,193.212585 
	C268.352051,192.972824 274.350311,193.077042 280.338898,193.220428 
	C281.094604,193.238525 281.828278,194.176941 282.421906,194.585541 
	C282.327576,195.160995 282.332642,195.446136 282.270996,195.461349 
	C274.963867,197.265671 276.055481,202.742142 276.093079,208.327164 
	C276.171692,220.015945 275.732849,231.716293 275.177124,243.396210 
	C275.016144,246.779861 275.649567,248.878510 279.145386,249.612442 
	C280.222961,249.838684 281.245575,250.326996 283.029755,250.954193 
	C281.721863,251.829956 281.017731,252.707214 280.292236,252.725250 
	C271.864197,252.934845 263.433044,253.040771 255.002335,253.074463 
	C254.397949,253.076889 253.358231,252.357285 253.293884,251.871124 
	C253.213638,251.264648 253.831223,250.066254 254.327545,249.959335 
	C260.067352,248.722885 261.514435,244.312759 261.647675,239.480484 
	C261.909302,229.989761 261.724640,220.486740 261.724640,210.988800 
	C261.267181,210.777145 260.809753,210.565491 260.352295,210.353836 
	C258.538879,213.682495 256.354767,216.865921 254.982727,220.367523 
	C251.142365,230.168518 247.842484,240.185883 243.817123,249.905731 
	C243.066269,251.718811 240.064865,253.049591 237.849121,253.619568 
	C236.714355,253.911469 234.275024,252.364731 233.694244,251.076767 
	C227.954086,238.346985 222.480072,225.497192 216.746155,211.999786 
	C215.488510,209.371460 214.415405,207.424744 212.932877,204.735291 
	C212.932877,218.178757 212.894012,230.801285 213.020035,243.422195 
	C213.028458,244.265503 214.286407,245.096344 214.963165,245.932983 
z"/>
<path fill="#191917" opacity="1.000000" stroke="none" 
	d="
M299.087463,203.157913 
	C298.319427,201.240326 297.976654,198.923508 296.660004,197.520950 
	C295.421417,196.201569 293.155304,195.846802 291.341278,195.067627 
	C291.437592,194.527145 291.533905,193.986664 291.630219,193.446182 
	C293.974762,193.296326 296.317688,193.058334 298.664185,193.016312 
	C302.653198,192.944901 306.656433,193.189835 310.631317,192.942413 
	C314.563171,192.697662 316.188538,194.574371 317.254913,198.113510 
	C318.547913,202.404694 320.470612,206.507889 322.151978,210.679871 
	C324.021545,215.318848 325.744263,220.029465 327.874817,224.546707 
	C329.490814,227.972977 331.645660,231.145096 334.099457,235.354523 
	C336.900146,228.726761 339.433502,222.731812 341.966705,216.736786 
	C344.510956,210.715469 347.785675,204.882706 349.402222,198.621841 
	C351.164978,191.794617 355.866425,193.001038 360.409912,193.026245 
	C365.092133,193.052231 369.773163,193.293579 375.657349,193.478470 
	C371.833527,196.918137 369.285309,199.210327 366.107422,201.939163 
	C365.355438,215.517853 365.225983,228.659866 365.147003,241.802185 
	C365.144745,242.176147 365.679688,242.553345 365.964111,242.929016 
	C367.711304,244.699234 369.412048,246.518845 371.222412,248.221954 
	C372.391724,249.321991 373.721588,250.251373 374.979492,251.257217 
	C374.790680,251.642365 374.601868,252.027512 374.413055,252.412659 
	C365.137238,252.412659 355.861420,252.412659 346.585602,252.412659 
	C346.421021,252.040146 346.256439,251.667618 346.091827,251.295105 
	C348.320740,249.432251 350.549622,247.569412 353.217468,245.116333 
	C353.744751,233.667725 353.868225,222.809235 353.845398,211.951065 
	C353.843811,211.195480 352.756073,210.442184 352.173431,209.687820 
	C346.792389,222.172363 341.112732,234.541885 336.229797,247.218307 
	C334.928284,250.597153 334.010193,253.607422 330.266510,253.304657 
	C328.014404,253.122513 324.806702,251.526337 323.942841,249.673187 
	C319.971313,241.153427 316.696045,232.310349 313.124512,223.602310 
	C311.505371,219.654617 309.778259,215.751221 308.123383,211.121033 
	C307.509247,209.081207 306.871826,207.748093 306.234436,206.414978 
	C305.073669,216.189667 305.006531,225.599136 305.110382,235.006699 
	C305.146332,238.263550 305.606842,241.515701 305.873413,244.770020 
	C308.450195,246.975037 311.027008,249.180069 314.571411,252.213089 
	C306.190033,252.213089 298.825867,252.213089 291.461670,252.213089 
	C291.073669,251.834244 290.685638,251.455399 290.297638,251.076553 
	C299.439972,248.056030 302.241211,241.926376 300.109528,232.729279 
	C299.890076,226.508911 300.023468,221.052567 299.895538,215.602341 
	C299.798065,211.450165 299.368988,207.305771 299.087463,203.157913 
M353.775604,206.403610 
	C353.946838,206.160522 354.118073,205.917435 354.289307,205.674347 
	C354.035431,205.829651 353.781525,205.984970 353.775604,206.403610 
z"/>
<path fill="#1B1B19" opacity="1.000000" stroke="none" 
	d="
M436.134613,201.183640 
	C433.775452,205.875580 431.246094,210.089966 429.315155,214.562683 
	C428.074280,217.436935 428.002411,220.798309 426.905640,223.755569 
	C423.373352,233.280060 419.696991,242.754791 415.825928,252.145538 
	C415.322235,253.367432 413.378204,254.681091 412.059113,254.726547 
	C409.881714,254.801559 406.776367,254.593521 405.670715,253.214783 
	C403.755188,250.826157 403.066895,247.452393 401.868042,244.490143 
	C399.135315,237.737686 396.322144,231.016266 393.698639,224.221634 
	C391.334564,218.098969 389.409149,211.797562 386.835724,205.769058 
	C385.540924,202.735901 383.285919,200.099182 381.365540,197.352844 
	C380.544220,196.178253 379.468811,195.181320 377.589630,193.071716 
	C387.232391,193.071716 395.342224,192.954041 403.445068,193.140488 
	C406.011963,193.199539 406.868744,195.186630 404.665009,196.687012 
	C400.012146,199.854828 401.377136,203.746506 402.854126,207.610870 
	C406.253601,216.504959 409.850616,225.323532 413.593201,234.740768 
	C414.875214,233.142136 416.193176,232.088104 416.736572,230.725235 
	C420.248932,221.915848 423.570496,213.030609 427.004333,204.189560 
	C428.030090,201.548538 428.212616,199.576279 424.844910,198.359207 
	C423.704926,197.947220 423.160919,195.886002 422.344574,194.578461 
	C423.617249,194.055405 424.869690,193.149902 426.166382,193.081360 
	C429.982513,192.879669 433.824219,192.869659 437.638458,193.088715 
	C438.918427,193.162231 440.145905,194.150101 441.397400,194.720062 
	C440.657227,195.716187 439.968323,196.756165 439.163483,197.696945 
	C438.235077,198.782166 437.204346,199.779877 436.134613,201.183640 
z"/>
<path fill="#93292A" opacity="1.000000" stroke="none" 
	d="
M397.455566,290.723877 
	C396.408722,286.347961 395.467896,282.100922 395.353485,277.831757 
	C395.329254,276.927582 398.270142,275.300293 399.942719,275.158142 
	C402.006439,274.982697 405.242706,273.545624 405.865662,277.492889 
	C406.070282,278.789398 405.883759,280.147003 406.081268,281.445404 
	C407.447052,290.422272 406.950897,291.007721 397.455566,290.723877 
z"/>
<path fill="#8C2221" opacity="1.000000" stroke="none" 
	d="
M343.929199,275.583252 
	C347.900940,278.806763 349.129822,282.494781 347.031158,286.810547 
	C345.290161,290.390808 342.122009,291.605865 338.296967,290.860352 
	C334.083282,290.039124 331.140686,285.674347 332.109741,281.027893 
	C332.901489,277.231720 335.133942,274.488922 339.670471,275.000610 
	C340.980682,275.148438 342.299713,275.217957 343.929199,275.583252 
M337.491821,278.999817 
	C335.518402,281.379669 335.072144,283.702911 337.827820,285.830505 
	C340.209229,287.669159 342.311523,286.997894 343.647736,284.626953 
	C344.221802,283.608276 344.367706,281.292664 343.780273,280.876709 
	C342.141510,279.716339 340.017670,279.241089 337.491821,278.999817 
z"/>
<path fill="#93292A" opacity="1.000000" stroke="none" 
	d="
M382.327942,277.170288 
	C383.275024,275.661285 384.013275,274.427521 384.866425,273.001678 
	C390.982452,276.732330 390.276764,283.495483 392.687378,288.667236 
	C392.873901,289.067352 391.900757,290.457336 391.235657,290.672211 
	C390.633270,290.866760 389.269379,290.283844 389.006470,289.699463 
	C386.905334,285.029114 384.814789,286.907410 382.364349,289.400146 
	C381.412720,290.368225 379.856384,290.741882 378.575500,291.386353 
	C378.288483,291.082916 378.001465,290.779480 377.714447,290.476044 
	C379.182648,286.132538 380.650879,281.789062 382.327942,277.170288 
z"/>
<path fill="#93292A" opacity="1.000000" stroke="none" 
	d="
M290.959106,275.529327 
	C295.400330,279.077942 295.856445,283.566711 293.369598,287.482544 
	C291.205200,290.890656 287.412323,291.824585 282.975006,290.193756 
	C277.792969,288.289185 278.976227,284.207947 279.209106,280.755646 
	C279.424805,277.557587 281.065125,274.682770 285.215607,274.987610 
	C287.022552,275.120331 288.835236,275.175354 290.959106,275.529327 
M282.127594,281.947571 
	C283.029449,283.634277 283.849487,286.659851 284.850677,286.721069 
	C286.767090,286.838165 289.190674,285.655304 290.566620,284.213135 
	C291.126129,283.626678 289.996368,280.283081 288.764923,279.377502 
	C286.377777,277.622162 283.806458,278.126282 282.127594,281.947571 
z"/>
<path fill="#93292A" opacity="1.000000" stroke="none" 
	d="
M363.209595,290.865570 
	C360.628784,289.045074 358.047974,287.224579 356.025024,285.797577 
	C355.283173,286.839386 353.849976,288.852142 351.944824,290.677765 
	C351.247314,290.360931 351.070160,290.183014 350.941406,289.956879 
	C350.941406,289.956879 351.020203,290.017700 351.026855,289.704895 
	C350.701080,288.397247 350.368622,287.402374 350.036133,286.407501 
	C350.009644,285.437469 349.983154,284.467438 350.317139,283.020264 
	C350.956818,280.064575 351.236023,277.585968 351.515259,275.107391 
	C354.595032,277.178192 357.674805,279.248993 360.806427,281.354675 
	C360.735687,280.912140 360.857819,279.510345 360.286835,278.500549 
	C358.388550,275.143646 358.293060,275.197662 362.803528,275.514587 
	C363.217010,280.952850 363.213287,285.909210 363.209595,290.865570 
z"/>
<path fill="#8C2221" opacity="1.000000" stroke="none" 
	d="
M269.885468,278.041809 
	C265.483185,279.429077 264.836395,282.302917 267.006500,285.425690 
	C269.743469,289.364075 272.002686,285.892212 274.428680,284.277893 
	C275.134705,285.352692 275.838196,286.423615 276.355743,287.211517 
	C274.667236,289.933044 273.207581,292.575653 271.387024,294.940491 
	C271.076385,295.343994 269.221680,294.558807 268.080292,294.322784 
	C269.026855,290.610413 265.263977,289.801361 263.785797,287.624451 
	C261.440765,284.170990 262.775665,281.004028 264.190948,278.136169 
	C265.675995,275.127014 268.694458,274.026703 272.133789,274.927551 
	C275.222656,275.736664 276.857086,277.250488 274.725708,280.617554 
	C273.199982,279.734161 271.733246,278.884949 269.885468,278.041809 
z"/>
<path fill="#93292A" opacity="1.000000" stroke="none" 
	d="
M227.300629,279.040802 
	C226.316940,273.151276 230.823578,275.226532 233.381912,275.105865 
	C237.163666,274.927490 237.949524,277.858490 237.834259,280.822266 
	C237.719910,283.763092 237.093567,286.684021 236.612991,290.188202 
	C235.022537,290.844940 235.022537,290.844940 231.093994,285.262268 
	C229.411011,285.379181 228.350815,285.659821 227.290588,285.940430 
	C227.259293,284.226135 227.228012,282.511810 227.336456,280.268951 
	C227.568878,279.474304 227.510361,279.241119 227.300629,279.040802 
z"/>
<path fill="#8C2221" opacity="1.000000" stroke="none" 
	d="
M71.876060,289.982880 
	C73.965630,289.647003 76.054672,289.022217 78.144852,289.018402 
	C111.441696,288.958038 144.738678,288.977112 178.035629,288.978058 
	C179.998642,288.978119 181.961655,288.978058 184.270340,288.978058 
	C184.190445,287.152283 184.134995,285.884766 184.081970,284.234314 
	C185.063934,285.601135 186.043442,287.350952 186.573822,289.540039 
	C148.041824,289.980530 109.958939,289.981689 71.876060,289.982880 
z"/>
<path fill="#93292A" opacity="1.000000" stroke="none" 
	d="
M320.339050,275.354736 
	C324.095215,274.431824 327.416962,274.073547 330.342194,278.346436 
	C328.445557,278.606628 327.037750,278.721558 325.665527,279.007446 
	C323.863220,279.382843 320.985138,279.428619 320.555176,280.451080 
	C319.869141,282.082458 320.819214,284.401947 321.077484,286.430481 
	C323.114044,286.101868 325.151794,285.780365 327.185791,285.436584 
	C327.475952,285.387543 327.747864,285.230347 328.608765,284.901428 
	C329.063965,285.965942 330.168945,287.781250 329.889954,288.027344 
	C328.495605,289.257141 326.458923,291.157501 325.163940,290.823334 
	C322.018555,290.011536 318.475281,288.726074 316.369110,286.449951 
	C314.104309,284.002441 316.525360,278.238831 320.339050,275.354736 
z"/>
<path fill="#93292A" opacity="1.000000" stroke="none" 
	d="
M209.651581,288.471893 
	C206.882874,289.320312 204.280762,290.187225 201.708298,290.106720 
	C200.835251,290.079407 200.037033,287.661011 199.204620,286.335236 
	C200.547211,286.391968 201.890854,286.431274 203.231995,286.512146 
	C203.995758,286.558167 204.755417,286.672058 205.846970,286.427979 
	C202.040222,283.589935 197.700821,281.137146 201.115723,275.082489 
	C203.920715,275.198547 207.771317,273.821564 210.410782,279.020721 
	C207.970734,278.608154 206.437332,278.348907 204.246048,277.978424 
	C204.077652,282.734161 212.180740,282.812439 209.651581,288.471893 
z"/>
<path fill="#FEC1C2" opacity="1.000000" stroke="none" 
	d="
M71.718483,290.054504 
	C109.958939,289.981689 148.041824,289.980530 186.587189,289.890259 
	C186.145950,290.205536 185.242615,290.962402 184.338425,290.963440 
	C147.591232,291.005493 110.843956,290.980713 74.096703,290.953918 
	C73.268456,290.953308 72.440300,290.831635 71.420853,290.396057 
	C71.229607,290.025726 71.560905,290.126099 71.718483,290.054504 
z"/>
<path fill="#93292A" opacity="1.000000" stroke="none" 
	d="
M437.130493,274.862976 
	C438.480438,275.897583 439.438843,276.858582 440.397247,277.819550 
	C440.166595,278.160492 439.935974,278.501434 439.705353,278.842407 
	C437.946930,278.641357 436.188507,278.440308 433.200104,278.098633 
	C436.951172,281.701416 441.750519,283.749329 439.799927,288.841339 
	C439.341156,290.038971 436.431488,291.053223 434.812378,290.850433 
	C432.985596,290.621582 431.342865,288.923553 429.620087,287.864502 
	C429.872437,287.363953 430.124786,286.863403 430.377136,286.362823 
	C432.449188,286.682129 434.521271,287.001404 436.593323,287.320679 
	C436.776886,286.924561 436.960480,286.528442 437.144043,286.132324 
	C433.045563,284.082458 428.597900,281.936859 430.600800,276.541107 
	C431.039093,275.360382 434.610474,275.342651 437.130493,274.862976 
z"/>
<path fill="#8C2221" opacity="1.000000" stroke="none" 
	d="
M297.730408,286.247375 
	C299.566895,286.358978 301.068207,286.568054 302.569489,286.777100 
	C302.717072,286.369781 302.864624,285.962463 303.012207,285.555145 
	C301.862335,284.962006 300.680511,284.422882 299.568817,283.765259 
	C296.574097,281.993835 295.649414,278.951172 297.982483,276.808380 
	C299.563385,275.356415 302.913177,275.777618 305.488556,275.552643 
	C305.716034,275.532745 306.401611,277.007111 306.260284,277.653076 
	C306.138367,278.210480 305.162445,278.909454 304.525818,278.950409 
	C303.522644,279.014862 302.487396,278.579987 301.465759,278.356506 
	C301.255493,278.754730 301.045227,279.152954 300.834961,279.551178 
	C302.101807,280.370270 303.752258,280.924957 304.542877,282.072205 
	C305.646088,283.672974 307.201782,286.325623 306.587952,287.428833 
	C305.649078,289.116394 303.082092,290.653625 301.099030,290.799774 
	C298.965607,290.956970 296.109131,289.913452 297.730408,286.247375 
z"/>
<path fill="#93292A" opacity="1.000000" stroke="none" 
	d="
M250.077271,286.191406 
	C249.077438,288.083466 248.140411,289.574982 247.203400,291.066498 
	C246.114700,289.825073 244.681412,288.744781 244.009766,287.308350 
	C242.651367,284.403259 241.618057,281.332825 240.646896,278.268433 
	C240.372513,277.402649 240.778351,276.321320 240.872223,275.338837 
	C241.875488,275.714966 243.372086,275.805634 243.786865,276.522339 
	C244.903961,278.452759 245.559601,280.650238 246.392380,282.726715 
	C249.986832,281.232605 247.252090,274.183411 253.894043,275.316132 
	C252.603912,278.915985 251.372009,282.353424 250.077271,286.191406 
z"/>
<path fill="#8C2221" opacity="1.000000" stroke="none" 
	d="
M417.526733,283.944824 
	C416.037628,284.794220 414.905762,285.584442 412.737976,287.097992 
	C416.546112,287.852692 418.847198,288.308716 421.148254,288.764771 
	C421.059692,289.336182 420.971130,289.907593 420.882568,290.479004 
	C417.884369,290.479004 414.886169,290.479004 411.072113,290.479004 
	C411.072113,286.060547 410.131531,281.281372 411.329712,277.117706 
	C412.593933,272.724548 416.455292,275.307587 419.511230,276.828522 
	C417.674103,277.590027 415.836975,278.351532 413.999847,279.113037 
	C414.037750,279.489655 414.075684,279.866272 414.113617,280.242859 
	C415.423096,280.557129 416.822083,280.697815 417.984436,281.297363 
	C418.309479,281.464996 417.936676,282.985687 417.526733,283.944824 
z"/>
<path fill="#8C2221" opacity="1.000000" stroke="none" 
	d="
M214.076477,275.241608 
	C216.990768,275.241608 219.905060,275.241608 222.819351,275.241608 
	C222.863022,275.792877 222.906693,276.344147 222.950348,276.895386 
	C220.950516,277.688110 218.950684,278.480835 216.335114,279.517639 
	C219.272293,280.561981 221.185425,281.242218 223.098557,281.922424 
	C222.969269,282.434448 222.839996,282.946472 222.710724,283.458496 
	C221.007828,283.776581 219.304932,284.094635 215.859695,284.738159 
	C217.887360,286.292999 218.922699,287.247620 220.107529,287.950043 
	C221.281708,288.646179 222.606583,289.088104 223.108551,289.809387 
	C219.735809,289.977264 217.119873,289.977264 214.076477,289.977264 
	C214.076477,284.782990 214.076477,280.012299 214.076477,275.241608 
z"/>
<path fill="#908E8A" opacity="1.000000" stroke="none" 
	d="
M214.942596,245.468842 
	C214.286407,245.096344 213.028458,244.265503 213.020035,243.422195 
	C212.894012,230.801285 212.932877,218.178757 212.932877,204.735291 
	C214.415405,207.424744 215.488510,209.371460 216.760895,211.606323 
	C216.261353,213.270889 214.980103,214.637802 214.957413,216.025284 
	C214.799469,225.682693 214.902573,235.344391 214.942596,245.468842 
z"/>
<path fill="#615F5B" opacity="1.000000" stroke="none" 
	d="
M305.942932,244.368164 
	C305.606842,241.515701 305.146332,238.263550 305.110382,235.006699 
	C305.006531,225.599136 305.073669,216.189667 306.234436,206.414978 
	C306.871826,207.748093 307.509247,209.081207 308.081238,210.793503 
	C307.661530,212.697983 307.024536,214.218872 307.000610,215.749329 
	C306.881348,223.389465 306.976990,231.032867 306.867828,238.673294 
	C306.842560,240.441360 306.311005,242.202179 305.942932,244.368164 
z"/>
<path fill="#A41F1F" opacity="1.000000" stroke="none" 
	d="
M365.541840,276.134888 
	C369.553314,275.702911 373.564819,275.270935 376.599152,274.944183 
	C375.140991,280.474823 373.966980,284.927612 372.792969,289.380371 
	C372.356079,289.404480 371.919220,289.428558 371.482330,289.452637 
	C371.244629,285.949890 371.006958,282.447144 370.750305,278.665131 
	C369.353882,278.163300 367.859009,277.626099 365.975647,276.794434 
	C365.587158,276.499969 365.541840,276.134888 365.541840,276.134888 
z"/>
<path fill="#8C2221" opacity="1.000000" stroke="none" 
	d="
M259.966125,284.767212 
	C259.676788,287.032928 259.393341,288.850189 259.109894,290.667450 
	C258.590515,290.654633 258.071106,290.641815 257.551697,290.629028 
	C254.178070,285.964752 256.971527,280.569641 255.882568,275.422882 
	C259.851746,276.195953 259.851746,276.195953 259.966125,284.767212 
z"/>
<path fill="#8C2221" opacity="1.000000" stroke="none" 
	d="
M424.058167,288.302063 
	C424.038910,283.761261 424.038910,279.609985 424.038910,274.307220 
	C426.971954,277.529694 427.954651,287.948730 426.278076,289.513824 
	C426.022797,289.752106 424.834320,288.990631 424.058167,288.302063 
z"/>
<path fill="#615F5B" opacity="1.000000" stroke="none" 
	d="
M208.145767,243.876755 
	C207.764526,244.018112 207.383301,244.159470 206.850403,244.113495 
	C206.767242,230.278259 206.835724,216.630371 206.800659,202.528717 
	C207.084030,201.965469 207.470901,201.855972 207.978516,202.399597 
	C208.106796,211.999741 208.114349,220.946762 208.121918,229.893784 
	C208.082382,230.386917 208.042847,230.880066 208.036407,232.190536 
	C208.094940,236.630829 208.120361,240.253799 208.145767,243.876755 
z"/>
<path fill="#615F5B" opacity="1.000000" stroke="none" 
	d="
M366.002502,242.466675 
	C365.679688,242.553345 365.144745,242.176147 365.147003,241.802185 
	C365.225983,228.659866 365.355438,215.517853 365.866516,202.162857 
	C366.183807,215.301392 366.112366,228.652863 366.002502,242.466675 
z"/>
<path fill="#FEC1C2" opacity="1.000000" stroke="none" 
	d="
M352.547729,209.935867 
	C352.756073,210.442184 353.843811,211.195480 353.845398,211.951065 
	C353.868225,222.809235 353.744751,233.667725 353.315826,244.793915 
	C352.957458,233.435791 352.939728,221.809845 352.547729,209.935867 
z"/>
<path fill="#908E8A" opacity="1.000000" stroke="none" 
	d="
M365.331909,275.980469 
	C365.541840,276.134888 365.587158,276.499969 365.569733,276.683929 
	C365.360321,279.739227 365.255096,282.620056 364.943695,285.478363 
	C364.758545,287.177917 364.248993,288.842072 363.547424,290.693848 
	C363.213287,285.909210 363.217010,280.952850 363.248901,275.532715 
	C363.892029,275.321289 364.507019,275.573669 365.331909,275.980469 
z"/>
<path fill="#FEC1C2" opacity="1.000000" stroke="none" 
	d="
M299.064392,203.616455 
	C299.368988,207.305771 299.798065,211.450165 299.895538,215.602341 
	C300.023468,221.052567 299.890076,226.508911 299.853210,232.422424 
	C299.566864,227.727783 299.204376,222.576035 299.053925,217.418091 
	C298.924286,212.974045 299.036224,208.522949 299.064392,203.616455 
z"/>
<path fill="#FEC1C2" opacity="1.000000" stroke="none" 
	d="
M213.634583,275.294708 
	C214.076477,280.012299 214.076477,284.782990 214.076477,289.977264 
	C217.119873,289.977264 219.735809,289.977264 222.822739,290.005798 
	C220.004333,290.496246 216.714905,290.958160 213.192673,291.452789 
	C213.192673,285.570496 213.192673,280.459137 213.634583,275.294708 
z"/>
<path fill="#8C2221" opacity="1.000000" stroke="none" 
	d="
M227.213196,286.333893 
	C228.350815,285.659821 229.411011,285.379181 230.802505,285.074280 
	C230.556915,287.045624 229.980026,289.041229 229.403122,291.036865 
	C228.807266,290.930939 228.211411,290.825043 227.615540,290.719116 
	C227.455627,289.388519 227.295715,288.057922 227.213196,286.333893 
z"/>
<path fill="#8C2221" opacity="1.000000" stroke="none" 
	d="
M62.611542,290.903046 
	C63.219650,289.597260 64.239128,288.287109 65.592392,286.924255 
	C67.101723,287.737122 68.277267,288.602692 69.710785,289.681091 
	C67.653481,290.228851 65.338196,290.563751 62.611542,290.903046 
z"/>
<path fill="#908E8A" opacity="1.000000" stroke="none" 
	d="
M351.154907,275.147003 
	C351.236023,277.585968 350.956818,280.064575 350.399597,282.541260 
	C350.345917,280.088470 350.570221,277.637543 351.154907,275.147003 
z"/>
<path fill="#615F5B" opacity="1.000000" stroke="none" 
	d="
M204.041245,198.279449 
	C204.832016,198.557114 205.680908,199.139801 206.267059,199.856934 
	C205.369339,199.522400 204.734344,199.053421 204.041245,198.279449 
z"/>
<path fill="#908E8A" opacity="1.000000" stroke="none" 
	d="
M350.024567,286.734802 
	C350.368622,287.402374 350.701080,288.397247 350.996918,289.744690 
	C350.644531,289.085510 350.328766,288.073822 350.024567,286.734802 
z"/>
<path fill="#8C2221" opacity="1.000000" stroke="none" 
	d="
M183.697144,282.763306 
	C183.182159,282.532104 182.656265,282.007721 182.088547,281.188324 
	C182.593216,281.418945 183.139725,281.944550 183.697144,282.763306 
z"/>
<path fill="#8C2221" opacity="1.000000" stroke="none" 
	d="
M227.260330,279.268402 
	C227.510361,279.241119 227.568878,279.474304 227.398300,279.843811 
	C227.320404,279.947205 227.220032,279.496002 227.260330,279.268402 
z"/>
<path fill="#908E8A" opacity="1.000000" stroke="none" 
	d="
M351.008881,290.143860 
	C351.070160,290.183014 351.247314,290.360931 351.570984,290.651154 
	C351.384857,290.758331 351.187286,290.598053 351.008881,290.143860 
z"/>
<path fill="#000000" opacity="1.000000" stroke="none" 
	d="
M208.343445,229.557556 
	C208.114349,220.946762 208.106796,211.999741 208.133026,202.596436 
	C208.299530,211.167206 208.432251,220.194260 208.343445,229.557556 
z"/>
<path fill="#000000" opacity="1.000000" stroke="none" 
	d="
M208.359360,243.547852 
	C208.120361,240.253799 208.094940,236.630829 208.096878,232.557861 
	C208.273804,235.811539 208.423386,239.515244 208.359360,243.547852 
z"/>
<path fill="#000000" opacity="1.000000" stroke="none" 
	d="
M353.651611,206.271942 
	C353.781525,205.984970 354.035431,205.829651 354.289307,205.674347 
	C354.118073,205.917435 353.946838,206.160522 353.651611,206.271942 
z"/>
<path fill="#000000" opacity="1.000000" stroke="none" 
	d="
M337.788574,278.747559 
	C340.017670,279.241089 342.141510,279.716339 343.780273,280.876709 
	C344.367706,281.292664 344.221802,283.608276 343.647736,284.626953 
	C342.311523,286.997894 340.209229,287.669159 337.827820,285.830505 
	C335.072144,283.702911 335.518402,281.379669 337.788574,278.747559 
z"/>
<path fill="#000000" opacity="1.000000" stroke="none" 
	d="
M282.253540,281.577393 
	C283.806458,278.126282 286.377777,277.622162 288.764923,279.377502 
	C289.996368,280.283081 291.126129,283.626678 290.566620,284.213135 
	C289.190674,285.655304 286.767090,286.838165 284.850677,286.721069 
	C283.849487,286.659851 283.029449,283.634277 282.253540,281.577393 
z"/>
</svg>